<svg width="20" height="20" viewBox="0 0 20 20" fill="none" xmlns="http://www.w3.org/2000/svg">
<path fill-rule="evenodd" clip-rule="evenodd" d="M9.43727 0.929967L6.64565 5.28601L2.58817 5.28658C1.71108 5.28658 1 6.00171 1 6.88387V11.1433C1 14.3779 3.60728 17 6.82353 17H17.3059C18.2415 17 19 16.2372 19 15.2962L18.9934 15.1439C18.9585 14.7422 18.7868 14.3773 18.5233 14.0995L18.4875 14.0647L18.5281 14.0236C18.8226 13.6969 19 13.264 19 12.7938L18.9929 12.6283C18.9551 12.1913 18.7692 11.7926 18.4823 11.4881L18.4706 11.4766V11.4303L18.4705 11.4196L18.5281 11.3615C18.8226 11.0348 19 10.6018 19 10.1317L18.9929 9.96612C18.9551 9.52913 18.7692 9.13042 18.4823 8.82597L18.4706 8.81452V8.76818C18.4706 8.73496 18.4674 8.70249 18.4612 8.67107L18.4947 8.63688C18.811 8.28232 19 7.81485 19 7.30981L18.9939 7.1517C18.9137 6.1082 18.0464 5.28658 16.9882 5.28658L12.0065 5.28601L13.0155 2.9013C13.4314 1.91701 13.0419 0.775871 12.1127 0.256009C11.1836 -0.263748 10.013 0.0311559 9.43727 0.929967ZM17.0193 8.26818L17.2709 8.19786C17.6636 8.08807 17.9409 7.72632 17.9409 7.30981C17.9409 6.78052 17.5143 6.35144 16.988 6.35144L10.4065 6.35079L12.0408 2.48477C12.2449 2.00175 12.0537 1.4417 11.5977 1.18657L11.4852 1.13286C11.0658 0.965071 10.5778 1.11536 10.3271 1.50671L7.22315 6.35083L2.58801 6.35144C2.29562 6.35144 2.05859 6.58982 2.05859 6.88387V11.1433C2.05859 13.7898 4.19182 15.9351 6.8233 15.9351H17.3057C17.6565 15.9351 17.9409 15.6491 17.9409 15.2962C17.9409 14.9955 17.7421 14.7372 17.4884 14.6573H14.7354C14.4592 14.6573 14.2354 14.4335 14.2354 14.1573V14.0925C14.2354 13.8163 14.4592 13.5925 14.7354 13.5925H17.0703L17.3175 13.5471C17.6759 13.4814 17.9409 13.1652 17.9409 12.7938C17.9409 12.421 17.6949 12.0977 17.3475 11.9952H14.7354C14.4592 11.9952 14.2354 11.7713 14.2354 11.4952V11.4303C14.2354 11.1542 14.4592 10.9303 14.7354 10.9303H17.0703L17.3175 10.885C17.6759 10.8193 17.9409 10.503 17.9409 10.1317C17.9409 9.75885 17.6949 9.43559 17.3476 9.33304H14.7354C14.4592 9.33304 14.2354 9.10918 14.2354 8.83304V8.76818C14.2354 8.49204 14.4592 8.26818 14.7354 8.26818H17.0193Z" fill="white"/>
<path fill-rule="evenodd" clip-rule="evenodd" d="M2.58824 5.28658H7.35294V17H6.82353C3.60728 17 1 14.3779 1 11.1433V6.88387C1 6.00171 1.71108 5.28658 2.58824 5.28658ZM6.29389 15.9048V6.35087L2.58801 6.35144C2.29562 6.35144 2.05859 6.58982 2.05859 6.88387V11.1433C2.05859 13.5629 3.8418 15.5637 6.15865 15.8889L6.29389 15.9048Z" fill="white"/>
</svg>
