<svg width="20" height="20" viewBox="0 0 20 20" fill="none" xmlns="http://www.w3.org/2000/svg">
<g clip-path="url(#clip0_224:26363)">
<rect width="20" height="20" fill="black"/>
<path fill-rule="evenodd" clip-rule="evenodd" d="M5.86953 5.28601V16.9996L5.76471 17C2.63093 17 1.0805 14.5106 1.00306 11.3908L1 11.1432V6.88373C1 6.05346 1.62988 5.37114 2.43528 5.29374L2.45694 5.2924L2.58819 5.28643L5.86953 5.28601ZM12.1127 0.255785C12.9902 0.746772 13.3864 1.79193 13.0774 2.73573L13.0155 2.9011L12.0065 5.28608L16.9882 5.28643C17.9907 5.28643 18.8219 6.02384 18.9748 6.98873L18.9939 7.15156L19 7.30968C19 7.49334 18.9755 7.67217 18.9292 7.84266L15.8235 7.84211C15.5311 7.84211 15.2941 8.08049 15.2941 8.37455C15.2941 8.63593 15.4814 8.85332 15.7284 8.89841L15.8235 8.90698L18.5415 8.90657L18.5946 8.96818C18.7799 9.20138 18.9101 9.47961 18.9673 9.78211L18.9928 9.96637L19 10.1316C19 10.3752 18.9532 10.609 18.8677 10.8239L15.8235 10.8238C15.5311 10.8238 15.2941 11.0621 15.2941 11.3562C15.2941 11.6176 15.4814 11.835 15.7284 11.88L15.8235 11.8886L18.7665 11.8879C18.8613 12.0591 18.9299 12.2465 18.9673 12.4443L18.9928 12.6285L19 12.7938C19 13.1646 18.8915 13.513 18.703 13.8059L15.8235 13.8054C15.5311 13.8054 15.2941 14.0438 15.2941 14.3378C15.2941 14.5992 15.4814 14.8166 15.7284 14.8617L15.8235 14.8703L18.9462 14.8692C18.9551 14.9038 18.963 14.9389 18.9697 14.9743L18.9933 15.1439L19 15.2962C19 16.1849 18.3235 16.9147 17.4601 16.993L17.3059 17L6.92835 16.9996V4.85687L9.43833 0.931191C10.013 0.0316863 11.1837 -0.263974 12.1127 0.255785Z" fill="white"/>
</g>
<defs>
<clipPath id="clip0_224:26363">
<rect width="20" height="20" fill="white"/>
</clipPath>
</defs>
</svg>
