<svg width="20" height="20" viewBox="0 0 20 20" fill="none" xmlns="http://www.w3.org/2000/svg">
<path fill-rule="evenodd" clip-rule="evenodd" d="M6.64565 5.28601L9.43727 0.929967C10.013 0.0311559 11.1836 -0.263748 12.1127 0.256009C13.0419 0.775871 13.4314 1.91701 13.0155 2.9013L12.0065 5.28601L16.9882 5.28658C18.0464 5.28658 18.9137 6.1082 18.9939 7.1517L19 7.30981C19 7.81485 18.811 8.28232 18.4947 8.63688L18.3944 8.73934L18.4823 8.82597C18.7692 9.13042 18.9551 9.52913 18.9929 9.96612L19 10.1317C19 10.6018 18.8226 11.0348 18.5281 11.3615L18.442 11.4483L18.4823 11.4881C18.7692 11.7926 18.9551 12.1913 18.9929 12.6283L19 12.7938C19 13.264 18.8226 13.6969 18.5281 14.0236L18.4875 14.0647L18.5233 14.0995C18.7868 14.3773 18.9585 14.7422 18.9934 15.1439L19 15.2962C19 16.2372 18.2415 17 17.3059 17H6.82353C3.60728 17 1 14.3779 1 11.1433V6.88387C1 6.00171 1.71108 5.28658 2.58817 5.28658L6.64565 5.28601ZM12.0408 2.48478C12.2449 2.00175 12.0537 1.44171 11.5977 1.18657L11.4852 1.13287C11.0658 0.965075 10.5778 1.11537 10.3271 1.50671L7.22315 6.35083L2.58801 6.35145C2.29562 6.35145 2.05859 6.58982 2.05859 6.88387V11.1433C2.05859 13.7898 4.19182 15.9351 6.8233 15.9351H17.3057C17.6565 15.9351 17.9409 15.6491 17.9409 15.2962C17.9409 14.9602 17.6926 14.677 17.3968 14.6368L16.8679 14.5996L16.8954 13.6245L17.3175 13.5471C17.6759 13.4815 17.9409 13.1652 17.9409 12.7938C17.9409 12.4029 17.6704 12.0664 17.2962 11.9818L16.8815 11.8881L16.8845 10.9644L17.3175 10.885C17.6759 10.8193 17.9409 10.503 17.9409 10.1317C17.9409 9.74073 17.6704 9.40427 17.2962 9.31967L16.8813 9.22588L16.8847 8.30581L17.2709 8.19786C17.6636 8.08808 17.9409 7.72633 17.9409 7.30982C17.9409 6.78052 17.5143 6.35145 16.988 6.35145L10.4065 6.35079L12.0408 2.48478Z" fill="black"/>
<path fill-rule="evenodd" clip-rule="evenodd" d="M2.58824 5.28658H7.35294V17H6.82353C3.60728 17 1 14.3779 1 11.1433V6.88387C1 6.00171 1.71108 5.28658 2.58824 5.28658ZM6.29389 15.9048V6.35087L2.58801 6.35144C2.29562 6.35144 2.05859 6.58982 2.05859 6.88387V11.1433C2.05859 13.5629 3.8418 15.5637 6.15865 15.8889L6.29389 15.9048Z" fill="black"/>
<path fill-rule="evenodd" clip-rule="evenodd" d="M14.2354 11.4303C14.2354 11.1542 14.4592 10.9303 14.7354 10.9303H17.9706C18.2468 10.9303 18.4706 11.1542 18.4706 11.4303V11.4952C18.4706 11.7713 18.2468 11.9952 17.9706 11.9952H14.7354C14.4592 11.9952 14.2354 11.7713 14.2354 11.4952V11.4303Z" fill="black"/>
<path fill-rule="evenodd" clip-rule="evenodd" d="M14.2354 14.0925C14.2354 13.8163 14.4592 13.5925 14.7354 13.5925H17.9706C18.2468 13.5925 18.4706 13.8163 18.4706 14.0925V14.1573C18.4706 14.4335 18.2468 14.6573 17.9706 14.6573H14.7354C14.4592 14.6573 14.2354 14.4335 14.2354 14.1573V14.0925Z" fill="black"/>
<path fill-rule="evenodd" clip-rule="evenodd" d="M14.2354 8.76819C14.2354 8.49205 14.4592 8.26819 14.7354 8.26819H17.9706C18.2468 8.26819 18.4706 8.49205 18.4706 8.76819V8.83304C18.4706 9.10919 18.2468 9.33304 17.9706 9.33304H14.7354C14.4592 9.33304 14.2354 9.10919 14.2354 8.83304V8.76819Z" fill="black"/>
</svg>
