<svg width="62" height="62" viewBox="0 0 62 62" fill="none" xmlns="http://www.w3.org/2000/svg">
<g filter="url(#filter0_d_32:5873)">
<circle cx="31" cy="29" r="24" fill="#EBF4EE"/>
<circle cx="31" cy="29" r="24" stroke="#C9DACD"/>
</g>
<mask id="mask0_32:5873" style="mask-type:alpha" maskUnits="userSpaceOnUse" x="16" y="14" width="30" height="30">
<rect x="16" y="14" width="30" height="30" fill="white"/>
</mask>
<g mask="url(#mask0_32:5873)">
<path fill-rule="evenodd" clip-rule="evenodd" d="M28.1387 18.25H27.5572L27.4124 18.8132L26.7706 21.3087L26.4571 21.4932L24.0577 20.8431L23.4991 20.6918L23.2111 21.1938L20.3495 26.1811L20.0645 26.6778L20.4686 27.0836L22.2292 28.8515V29.2294L20.4686 30.9973L20.0645 31.4031L20.3495 31.8998L23.2111 36.8871L23.4991 37.3891L24.0577 37.2378L26.4571 36.5877L26.7733 36.7738L27.4137 39.192L27.5615 39.75H28.1387H32.25V38.25H28.716L28.1444 36.0918L28.0654 35.7938L27.7998 35.6374L26.946 35.1349L26.674 34.9748L26.3694 35.0573L24.2241 35.6386L21.9355 31.65L23.5106 30.0684L23.7292 29.8489V29.5392V28.5417V28.232L23.5106 28.0125L21.9355 26.4309L24.2241 22.4423L26.3694 23.0236L26.674 23.1061L26.946 22.946L27.7998 22.4435L28.0681 22.2855L28.1457 21.984L28.7203 19.75H33.2798L33.8547 21.984L33.9323 22.2856L34.2006 22.4435L35.0544 22.946L35.3263 23.1061L35.631 23.0236L37.776 22.4423L40.0645 26.431L38.4896 28.0125L38.2711 28.232V28.5417V29.5392V29.8489L38.2843 29.8622L39.7987 28.8237L41.5314 27.0836L41.9355 26.6778L41.6505 26.1812L38.789 21.1938L38.5009 20.6918L37.9423 20.8431L35.5433 21.4932L35.2298 21.3087L34.5876 18.8131L34.4427 18.25H33.8612H28.1387ZM28 29C28 27.3431 29.3431 26 31 26C32.6568 26 33.9999 27.343 34 28.9998C33.9976 30.6558 32.6558 31.9976 30.9998 32C29.343 31.9999 28 30.6568 28 29ZM31 24.5C28.5147 24.5 26.5 26.5147 26.5 29C26.5 31.4853 28.5147 33.5 31 33.5L31.0009 33.5C33.4845 33.497 35.497 31.4845 35.5 29.0009L35.5 29C35.5 26.5147 33.4853 24.5 31 24.5Z" fill="#333333"/>
<path d="M35.35 32.59V33.66H38.36C38.12 35.7 36.98 37.16 34.84 38.26L35.58 39.27C38.64 37.72 39.69 35.35 39.69 32.59H35.35ZM43.43 35.16H42.14V31.64H40.82V40.84H42.14V36.25H43.43V35.16Z" fill="#333333"/>
</g>
<defs>
<filter id="filter0_d_32:5873" x="0.5" y="0.5" width="61" height="61" filterUnits="userSpaceOnUse" color-interpolation-filters="sRGB">
<feFlood flood-opacity="0" result="BackgroundImageFix"/>
<feColorMatrix in="SourceAlpha" type="matrix" values="0 0 0 0 0 0 0 0 0 0 0 0 0 0 0 0 0 0 127 0" result="hardAlpha"/>
<feOffset dy="2"/>
<feGaussianBlur stdDeviation="3"/>
<feColorMatrix type="matrix" values="0 0 0 0 0 0 0 0 0 0 0 0 0 0 0 0 0 0 0.1 0"/>
<feBlend mode="normal" in2="BackgroundImageFix" result="effect1_dropShadow_32:5873"/>
<feBlend mode="normal" in="SourceGraphic" in2="effect1_dropShadow_32:5873" result="shape"/>
</filter>
</defs>
</svg>
