<svg width="36" height="36" viewBox="0 0 36 36" fill="none" xmlns="http://www.w3.org/2000/svg">
<path d="M28.9507 24.2796L28.3089 23.5126L28.3407 23.4861L28.3745 23.4622L28.9507 24.2796ZM19.2461 32.4L19.8878 33.1669L18.2461 34.5407V32.4H19.2461ZM19.2461 26.5312V25.5312H20.2461V26.5312H19.2461ZM33.2 14.1656C33.2 7.88855 28.1114 2.79999 21.8343 2.79999V0.799988C29.216 0.799988 35.2 6.78398 35.2 14.1656H33.2ZM28.3745 23.4622C31.2954 21.4033 33.2 18.0068 33.2 14.1656H35.2C35.2 18.6845 32.9564 22.6794 29.5268 25.0969L28.3745 23.4622ZM18.6043 31.6331L28.3089 23.5126L29.5924 25.0465L19.8878 33.1669L18.6043 31.6331ZM20.2461 26.5312V32.4H18.2461V26.5312H20.2461ZM14.1656 25.5312H19.2461V27.5312H14.1656V25.5312ZM2.79995 14.1656C2.79995 20.4427 7.88852 25.5312 14.1656 25.5312V27.5312C6.78395 27.5312 0.799953 21.5472 0.799953 14.1656H2.79995ZM14.1656 2.79999C7.88851 2.79999 2.79995 7.88855 2.79995 14.1656H0.799953C0.799953 6.78398 6.78394 0.799988 14.1656 0.799988V2.79999ZM21.8343 2.79999H14.1656V0.799988H21.8343V2.79999Z" fill="#CCCCCC"/>
<circle cx="10.5" cy="14.5" r="1.5" fill="#CCCCCC"/>
<circle cx="17.5" cy="14.5" r="1.5" fill="#CCCCCC"/>
<circle cx="25.5" cy="14.5" r="1.5" fill="#CCCCCC"/>
</svg>
