<svg width="20" height="20" viewBox="0 0 20 20" fill="none" xmlns="http://www.w3.org/2000/svg">
<path d="M16.0838 13.4886L15.6025 12.9134L15.6263 12.8935L15.6517 12.8756L16.0838 13.4886ZM10.6923 18L11.1736 18.5752L9.94231 19.6055V18H10.6923ZM10.6923 14.7396V13.9896H11.4423V14.7396H10.6923ZM18.25 7.86979C18.25 4.48992 15.5101 1.75 12.1302 1.75V0.25C16.3385 0.25 19.75 3.66149 19.75 7.86979H18.25ZM15.6517 12.8756C17.2249 11.7666 18.25 9.93788 18.25 7.86979H19.75C19.75 10.4462 18.4706 12.7237 16.5159 14.1016L15.6517 12.8756ZM10.211 17.4248L15.6025 12.9134L16.5651 14.0638L11.1736 18.5752L10.211 17.4248ZM11.4423 14.7396V18H9.94231V14.7396H11.4423ZM7.86979 13.9896H10.6923V15.4896H7.86979V13.9896ZM1.75 7.86979C1.75 11.2497 4.48992 13.9896 7.86979 13.9896V15.4896C3.6615 15.4896 0.25 12.0781 0.25 7.86979H1.75ZM7.86979 1.75C4.48992 1.75 1.75 4.48992 1.75 7.86979H0.25C0.25 3.66149 3.6615 0.25 7.86979 0.25V1.75ZM12.1302 1.75H7.86979V0.25H12.1302V1.75Z" fill="white"/>
<ellipse cx="6.19227" cy="7.93867" rx="1.03846" ry="1.03047" fill="white"/>
<ellipse cx="10.3461" cy="7.93867" rx="1.03846" ry="1.03047" fill="white"/>
<ellipse cx="14.4999" cy="7.93867" rx="1.03846" ry="1.03047" fill="white"/>
</svg>
