<svg width="20" height="20" viewBox="0 0 20 20" fill="none" xmlns="http://www.w3.org/2000/svg">
<path d="M16.0838 13.4886L15.7629 13.1051L15.7788 13.0918L15.7957 13.0799L16.0838 13.4886ZM10.6923 18L11.0132 18.3835L10.1923 19.0703V18H10.6923ZM10.6923 14.7396V14.2396H11.1923V14.7396H10.6923ZM18.5 7.86979C18.5 4.35185 15.6481 1.5 12.1302 1.5V0.5C16.2004 0.5 19.5 3.79957 19.5 7.86979H18.5ZM15.7957 13.0799C17.4325 11.9261 18.5 10.0226 18.5 7.86979H19.5C19.5 10.3614 18.263 12.5641 16.3719 13.8973L15.7957 13.0799ZM10.3714 17.6165L15.7629 13.1051L16.4047 13.8721L11.0132 18.3835L10.3714 17.6165ZM11.1923 14.7396V18H10.1923V14.7396H11.1923ZM7.86979 14.2396H10.6923V15.2396H7.86979V14.2396ZM1.5 7.86979C1.5 11.3877 4.35185 14.2396 7.86979 14.2396V15.2396C3.79957 15.2396 0.5 11.94 0.5 7.86979H1.5ZM7.86979 1.5C4.35185 1.5 1.5 4.35185 1.5 7.86979H0.5C0.5 3.79957 3.79957 0.5 7.86979 0.5V1.5ZM12.1302 1.5H7.86979V0.5H12.1302V1.5Z" fill="#999999"/>
<ellipse cx="6.19227" cy="7.93843" rx="1.03846" ry="1.03047" fill="#999999"/>
<ellipse cx="10.3461" cy="7.93843" rx="1.03846" ry="1.03047" fill="#999999"/>
<ellipse cx="14.4999" cy="7.93843" rx="1.03846" ry="1.03047" fill="#999999"/>
</svg>
