<svg width="20" height="20" viewBox="0 0 20 20" fill="none" xmlns="http://www.w3.org/2000/svg">
<path d="M19 10L19.4151 10.2788L19.6023 10L19.4151 9.72124L19 10ZM1 10L0.584917 9.72124L0.397711 10L0.584917 10.2788L1 10ZM10 4.5C13.0798 4.5 15.9463 6.34981 18.5849 10.2788L19.4151 9.72124C16.6811 5.65019 13.5476 3.5 10 3.5V4.5ZM18.5849 9.72124C15.9463 13.6502 13.0798 15.5 10 15.5V16.5C13.5476 16.5 16.6811 14.3498 19.4151 10.2788L18.5849 9.72124ZM10 15.5C6.92017 15.5 4.05366 13.6502 1.41508 9.72124L0.584917 10.2788C3.31893 14.3498 6.45242 16.5 10 16.5V15.5ZM1.41508 10.2788C4.05366 6.34981 6.92017 4.5 10 4.5V3.5C6.45242 3.5 3.31893 5.65019 0.584917 9.72124L1.41508 10.2788ZM10 6.5C8.067 6.5 6.5 8.067 6.5 10H7.5C7.5 8.61929 8.61929 7.5 10 7.5V6.5ZM6.5 10C6.5 11.933 8.067 13.5 10 13.5V12.5C8.61929 12.5 7.5 11.3807 7.5 10H6.5ZM10 13.5C11.933 13.5 13.5 11.933 13.5 10H12.5C12.5 11.3807 11.3807 12.5 10 12.5V13.5ZM13.5 10C13.5 8.067 11.933 6.5 10 6.5V7.5C11.3807 7.5 12.5 8.61929 12.5 10H13.5Z" fill="#999999"/>
</svg>
