<svg width="40" height="40" viewBox="0 0 40 40" fill="none" xmlns="http://www.w3.org/2000/svg"><path fill-rule="evenodd" clip-rule="evenodd" d="M21.778 34.253l.004.003-.002-.002-.002-.001zm3.897-1.05C34.301 26.001 40 21.243 40 14.29 40 7.854 35.432 3 29.375 3c-2.17 0-4.16.674-5.915 2.003-.299.226-.58.464-.844.708C21.395 6.841 20.542 8.11 20 9.08c-.542-.97-1.395-2.24-2.616-3.369a11.268 11.268 0 00-.844-.708C14.786 3.673 12.796 3 10.625 3 4.568 3 0 7.854 0 14.29c0 6.954 5.699 11.712 14.326 18.914a492.638 492.638 0 014.851 4.088 1.266 1.266 0 001.646 0 488.173 488.173 0 014.852-4.089z" fill="currentColor"/></svg>