<svg width="24" height="24" viewBox="0 0 24 24" fill="none" xmlns="http://www.w3.org/2000/svg"><circle cx="12" cy="12" r="12" fill="#FE8903"/><path fill-rule="evenodd" clip-rule="evenodd" d="M12 17.75a2.25 2.25 0 002.25-2.25v-.004c-.008-.048-.073-.467-.474-1.319-.39-.826-.95-1.756-1.574-2.654a26.15 26.15 0 00-.202-.287c-.067.094-.135.19-.202.287-.624.898-1.185 1.828-1.574 2.654-.401.852-.466 1.271-.473 1.319l-.001.004A2.25 2.25 0 0012 17.75zm1.951-10.356c.009-.007.008-.006-.002.001l.002-.001zm-3.902 0l.002.001c-.01-.007-.01-.008-.002-.001zM12 20a6 6 0 006-6c0-3.314-5.25-9.75-6-9.75S6 10.686 6 14a6 6 0 006 6z" fill="#fff"/></svg>