<svg xmlns="http://www.w3.org/2000/svg" width="17" height="17" viewBox="0 0 17 17"><path d="M16.028 2.203s-1.537.885-2.01.728a3.85 3.85 0 00-2.441-1.023 3.29 3.29 0 00-2.334 1 3.288 3.288 0 00-.922 2.366 1.27 1.27 0 00.083.637s-3.838.393-6.834-3.354c0 0-1.506 2.477.987 4.29a1.438 1.438 0 01-1.44-.29S.967 8.955 3.74 9.781c-.456.189-.96.234-1.443.13 0 0 .452 2.119 3.044 2.221 0 0-1.683 1.651-4.841 1.392 0 .012 5.261 4.113 11.498-.999 0 0 2.898-2.493 2.882-7.369 0 0 1.18-.786 1.62-1.62a2.297 2.297 0 01-1.817.393s1.282-.9 1.345-1.726z" fill="#FFF"/></svg>