<svg width="23" height="16" viewBox="0 0 23 16" fill="none" xmlns="http://www.w3.org/2000/svg"><path fill="#FFBC00" d="M0 0h23v16H0z"/><path fill-rule="evenodd" clip-rule="evenodd" d="M7.797 12.146c2.18 0 3.539-1.26 3.539-3.134V3.545h-1.77v5.309c0 1.095-.632 1.793-1.77 1.793-1.136 0-1.775-.698-1.775-1.793v-5.31H4.252v5.468c0 1.88 1.377 3.134 3.545 3.134zM14.512 12V9.334h1.629c1.78 0 2.97-1.148 2.97-2.889v-.011c0-1.74-1.19-2.89-2.97-2.89h-3.399V12h1.77zm0-4.049h1.195c1.014 0 1.611-.539 1.611-1.5V6.44c0-.96-.597-1.494-1.611-1.494h-1.195v3.006z" fill="#000"/></svg>