<svg xmlns="http://www.w3.org/2000/svg" width="10" height="10" viewBox="0 0 10 10"><path d="M4.493.945a3.225 3.225 0 014.604 4.52l-.042.042-.76.76a.717.717 0 01-1.039-.988l.025-.026.76-.76a1.791 1.791 0 00-2.498-2.569l-.036.035-.76.76a.717.717 0 01-1.039-.988l.025-.026.76-.76zM1.705 3.733l.026-.025a.717.717 0 011.013 1.013l-.025.026-.76.76-.035.036a1.791 1.791 0 002.533 2.533l.036-.035.76-.76.026-.025a.718.718 0 011.013 1.013l-.025.026-.76.76-.042.042A3.227 3.227 0 01.903 4.535l.042-.042.76-.76zm4.309-.76a.717.717 0 011.038.987l-.024.026-3.042 3.042a.717.717 0 01-1.038-.988l.024-.026 3.042-3.042z" fill="#979797"/></svg>