<svg width="24" height="24" viewBox="0 0 24 24" fill="none" xmlns="http://www.w3.org/2000/svg"><path fill-rule="evenodd" clip-rule="evenodd" d="M15.807 3.835L12.524 0 8.919 3.535l-5.034-.39-.05 5.048L0 11.476l3.535 3.605-.39 5.034 5.048.05L11.476 24l3.605-3.535 5.034.39.05-5.048L24 12.524l-3.535-3.605.39-5.034-5.048-.05zm-.572 13.631l-3.314-3.314-3.315 3.314L6.75 15.61l3.315-3.314L6.75 8.98l1.856-1.856 3.315 3.315 3.314-3.315 1.856 1.856-3.314 3.315 3.314 3.314-1.856 1.856z" fill="#989898"/></svg>