<svg xmlns="http://www.w3.org/2000/svg" width="64" height="64" viewBox="0 0 64 64"><g fill="none" fill-rule="evenodd"><path fill="#EDEDED" d="M35.613 7.09a9.144 9.144 0 013.152 10.607l-3.51 9.3h20.113a4.003 4.003 0 013.957 4.602l-2.789 23.013a4.002 4.002 0 01-3.957 3.403H15.998V26.452L26.444 8.951a6.325 6.325 0 019.169-1.861zM9.994 27.775v28.461c0 .982-.896 1.779-2 1.779-1.106 0-2.002-.797-2.002-1.779v-28.46c0-.983.896-1.78 2.001-1.78s2.001.797 2.001 1.78z"/><path fill="#C8C8C8" fill-rule="nonzero" d="M31.933 5.867l.652.039a6.31 6.31 0 012.532.855l.496.329a9.144 9.144 0 013.152 10.607l-3.51 9.3h20.113a4.003 4.003 0 014.003 4.002l-.012.301-2.823 23.312a4.002 4.002 0 01-3.957 3.403H15.998V26.452L26.444 8.951a6.314 6.314 0 014.84-3.056l.65-.028zm-23.94 20.13c1.105 0 2.001.796 2.001 1.778v28.461c0 .86-.686 1.577-1.598 1.743l-.403.036c-1.105 0-2.001-.797-2.001-1.779v-28.46c0-.86.686-1.577 1.598-1.743l.403-.036zM31.23 11.443l-.204.243-9.697 16.237v24.755h30.06l2.47-20.347-26.323.003 6.237-16.521a3.81 3.81 0 00-.885-4.053l-.506-.416a.99.99 0 00-.893-.062l-.26.161z"/></g></svg>