<svg width="50" height="32" viewBox="0 0 50 32" fill="none" xmlns="http://www.w3.org/2000/svg"><path fill-rule="evenodd" clip-rule="evenodd" d="M0 0h50v32H0V0zm0 0h5.143v5.657H0V0zm44.857 26.343H50V32h-5.143v-5.657z" fill="#000"/><path d="M24.768 15.296v2.5H9v-2.5h6.35v-.944h-5.4V8h13.87v2.444H13.015v1.463H24v2.445h-5.584v.944h6.35zM9.839 18.63h14.016V24h-3.12v-2.889H9.839V18.63zM41 8v8.704h-3.084V13.11h-2.08v-2.333h-2.939c-.036.37-.103.697-.2.981l4.16 2.408-1.478 2.296-3.942-2.389a7.634 7.634 0 01-2.336 1.833 6.916 6.916 0 01-2.974.723v-2.741a3.843 3.843 0 001.733-.5c.511-.296.93-.673 1.26-1.13.328-.469.547-.963.656-1.481h-3.43V8.185h9.927v2.26h1.643V8H41zm-13.943 9.26H41v6.555H27.057v-6.556zm3.084 4h7.775v-1.445H30.14v1.444z" fill="#fff"/></svg>