<svg width="20" height="20" viewBox="0 0 20 20" fill="none" xmlns="http://www.w3.org/2000/svg"><path fill-rule="evenodd" clip-rule="evenodd" d="M7.567 5.965a1.72 1.72 0 01.274-1.13l2.034-3.166a1.433 1.433 0 012.524 1.334L11.14 5.965h5.46a1.4 1.4 0 01.4 2.742v.083a1.25 1.25 0 010 2.45v.05a1.25 1.25 0 010 2.45v.03a1.1 1.1 0 01-.1 2.195H7.1a1.1 1.1 0 01-.865-1.78A9.89 9.89 0 012 6.063a.1.1 0 01.099-.1h5.468z" fill="currentColor"/><path d="M7.841 4.834l-.42-.27.42.27zm-.274 1.13v.5h.558l-.061-.554-.497.055zM9.875 1.67l.42.27-.42-.27zm1.902-.478l-.243.437.243-.437zm.622 1.812l-.46-.195.46.195zM11.14 5.965l-.46-.196-.295.696h.755v-.5zM17 8.707l-.143-.48-.357.107v.373h.5zm0 .083h-.5v.408l.4.082.1-.49zm0 2.45l-.1-.49-.4.08v.41h.5zm0 .05h-.5v.408l.4.082.1-.49zm0 2.45l-.1-.49-.4.08v.41h.5zm0 .03h-.5v.456l.455.041.045-.498zm-10.765.414l.393.31.328-.416-.434-.303-.287.41zm1.185-9.62a2.22 2.22 0 00-.35 1.455l.994-.11a1.22 1.22 0 01.198-.804l-.842-.54zm2.034-3.166L7.42 4.564l.842.54 2.034-3.165-.842-.54zM12.02.754a1.933 1.933 0 00-2.566.644l.842.54a.933.933 0 011.238-.31l.486-.874zm.839 2.445a1.933 1.933 0 00-.84-2.445l-.485.874c.416.232.591.74.405 1.18l.92.39zM11.601 6.16l1.258-2.96-.92-.391L10.68 5.77l.92.391zm-.46.305H16v-1h-4.86v1zm5.459-1H16v1h.6v-1zm1.9 1.9a1.9 1.9 0 00-1.9-1.9v1a.9.9 0 01.9.9h1zm-1.357 1.82a1.9 1.9 0 001.357-1.82h-1a.9.9 0 01-.643.862l.286.959zm-.643-.478v.083h1v-.083h-1zm2 1.308A1.75 1.75 0 0017.1 8.3l-.2.98a.75.75 0 01.6.735h1zm-1.4 1.715a1.75 1.75 0 001.4-1.715h-1a.75.75 0 01-.6.735l.2.98zm-.6-.49v.05h1v-.05h-1zm2 1.275a1.75 1.75 0 00-1.4-1.715l-.2.98a.75.75 0 01.6.735h1zm-1.4 1.715a1.75 1.75 0 001.4-1.715h-1a.75.75 0 01-.6.735l.2.98zm-.6-.49v.03h1v-.03h-1zm2 1.125a1.6 1.6 0 00-1.455-1.594l-.09.996a.6.6 0 01.545.598h1zm-1.6 1.6a1.6 1.6 0 001.6-1.6h-1a.6.6 0 01-.6.6v1zm-.048 0h.048v-1h-.048v1zm0-1H11.9v1h4.95v-1zm-9.752 1h4.801v-1H7.1v1zm-1.6-1.6a1.6 1.6 0 001.6 1.6v-1a.6.6 0 01-.6-.6h-1zm.343-.99a1.595 1.595 0 00-.343.99h1c0-.141.048-.269.128-.371l-.785-.619zm.679-.1A9.39 9.39 0 012.5 6.064h-1a10.39 10.39 0 004.449 8.53l.573-.82zM2.5 6.064a.4.4 0 01-.401.4v-1a.599.599 0 00-.599.6h1zm-.401.4H7.4v-1H2.099v1zm5.301 0h.167v-1H7.4v1z" fill="currentColor"/><path d="M2 6.063a.1.1 0 01.099-.099H7v10a5 5 0 01-5-5v-4.9z" fill="currentColor" stroke="currentColor"/><path fill-rule="evenodd" clip-rule="evenodd" d="M7 2.964v14-14z" fill="currentColor" stroke="transparent"/><path fill-rule="evenodd" clip-rule="evenodd" d="M15 11.165a.5.5 0 01.5-.5h3a.5.5 0 110 1h-3a.5.5 0 01-.5-.5zm0 2.799a.5.5 0 01.5-.5h3a.5.5 0 110 1h-3a.5.5 0 01-.5-.5zm0-5.6a.5.5 0 01.5-.5h3a.5.5 0 010 1h-3a.5.5 0 01-.5-.5z" fill="transparent"/></svg>