<svg width="24" height="16" viewBox="0 0 24 16" fill="none" xmlns="http://www.w3.org/2000/svg"><rect width="23.111" height="16" rx="8" fill="#FFBC00"/><path fill-rule="evenodd" clip-rule="evenodd" d="M8.157 11.636c1.907 0 3.096-1.065 3.096-2.65V4.364H9.705v4.488c0 .927-.554 1.516-1.548 1.516s-1.553-.59-1.553-1.516V4.364H5.056v4.622c0 1.59 1.204 2.65 3.101 2.65zm5.875-.123V9.258h1.425c1.558 0 2.599-.97 2.599-2.442v-.01c0-1.471-1.041-2.442-2.6-2.442h-2.973v7.148h1.549zm0-3.424h1.045c.887 0 1.41-.456 1.41-1.268v-.01c0-.812-.523-1.263-1.41-1.263h-1.045v2.541z" fill="#000"/></svg>