<svg width="34" height="34" viewBox="0 0 34 34" fill="none" xmlns="http://www.w3.org/2000/svg"><path d="M17.707 17l-.354-.354L17 17l.354.354.353-.354zM28.353 6.354l.354.353.354-.353L28.707 6l-.354.354zm-.707-.708L28 5.293l-.354-.354-.353.354.353.353zm-11 11l-.353-.353.353.354zm-.353.354l-.354-.354-.353.354.353.354.354-.354zm.353.354l-.353.353.353-.353zm11 11l-.353.353.353.354.354-.354-.354-.353zm.707-.707l.354.353.354-.354-.354-.353-.354.354zM5.646 6.354L5.293 6l-.354.354.354.353.353-.353zM16.293 17l.353.354L17 17l-.354-.354-.353.354zM6.353 5.646l.354-.353-.353-.354L6 5.293l.354.353zm11 11l.354-.353-.354.354zm.354.354l.354.354.353-.354-.353-.354-.354.354zm-.354.354l.354.353-.354-.353zm-11 11L6 28.707l.354.354.353-.354-.353-.353zm-.707-.707l-.353-.354-.354.354.354.353.353-.354zm12.415-10.293L28.707 6.707 28 6 17.354 16.646l.707.708zM28.707 6L28 5.293 27.293 6l.707.707.707-.707zm-1.414-.707l-11 11L17 17 28 6l-.707-.707zm-11 11l-.354.354.707.707L17 17l-.707-.707zm-.354 1.06l.354.354L17 17l-.354-.354-.707.708zm.354.354l11 11L28 28 17 17l-.707.707zm11.707 11l.707-.707-.707-.707-.707.707.707.707zm.707-1.414L18.061 16.647l-.707.707L28 28l.707-.707zM5.293 6.707l10.646 10.647.707-.707L6 6l-.707.707zM6 5.293L5.293 6 6 6.707 6.707 6 6 5.293zm11.707 11l-11-11L6 6l11 11 .707-.707zm.354.354l-.354-.354L17 17l.354.354.707-.707zm-.354 1.06l.354-.353-.707-.707L17 17l.707.707zm-11 11l11-11L17 17 6 28l.707.707zM5.293 28l.707.707.707-.707L6 27.293 5.293 28zm10.646-11.354L5.293 27.294 6 28l10.646-10.646-.707-.707z" fill="currentColor"/></svg>