<svg width="64" height="64" viewBox="0 0 64 64" fill="none" xmlns="http://www.w3.org/2000/svg">
<circle cx="32" cy="32" r="32" fill="white"/>
<path fill-rule="evenodd" clip-rule="evenodd" d="M59.7333 32C59.7333 16.6833 47.3166 4.26666 31.9999 4.26666C16.6832 4.26666 4.2666 16.6833 4.2666 32C4.2666 47.3167 16.6832 59.7333 31.9999 59.7333C47.3166 59.7333 59.7333 47.3167 59.7333 32ZM8.53327 32C8.53327 19.0397 19.0397 8.53333 31.9999 8.53333C44.9602 8.53333 55.4666 19.0397 55.4666 32C55.4666 44.9603 44.9602 55.4667 31.9999 55.4667C19.0397 55.4667 8.53327 44.9603 8.53327 32Z" fill="#EF5350"/>
<path fill-rule="evenodd" clip-rule="evenodd" d="M38.5535 42.8373L43.9295 34.3125C44.5781 33.2715 45.0559 32.3285 45.3631 31.4837C45.6703 30.6389 45.8239 29.7387 45.8239 28.7829C45.8239 27.3323 45.4698 26.0565 44.7615 24.9557C44.0533 23.8549 43.0975 23.0016 41.8943 22.3957C40.6911 21.7899 39.3642 21.4869 37.9135 21.4869C36.4629 21.4869 35.1359 21.7899 33.9327 22.3957C32.7295 23.0016 31.7738 23.8592 31.0655 24.9685C30.3573 26.0779 30.0031 27.3579 30.0031 28.8085C30.0031 30.1739 30.3359 31.3941 31.0015 32.4693C31.6671 33.5445 32.5674 34.3808 33.7023 34.9781C34.8373 35.5755 36.0789 35.8741 37.4271 35.8741C37.649 35.8741 37.8453 35.84 38.0159 35.7717L33.2799 42.8373H38.5535ZM26.9567 42.8373V21.9733H18.6367V26.0181H22.3231V42.8373H26.9567ZM35.4559 31.1381C36.0703 31.7696 36.8895 32.0853 37.9135 32.0853C38.9375 32.0853 39.7567 31.7696 40.3711 31.1381C40.9855 30.5067 41.2927 29.7131 41.2927 28.7573C41.2927 27.8016 40.9855 27.008 40.3711 26.3765C39.7567 25.7451 38.9375 25.4293 37.9135 25.4293C36.8895 25.4293 36.0703 25.7451 35.4559 26.3765C34.8415 27.008 34.5343 27.8016 34.5343 28.7573C34.5343 29.7131 34.8415 30.5067 35.4559 31.1381Z" fill="black"/>
</svg>
