<svg width="64" height="64" viewBox="0 0 64 64" fill="none" xmlns="http://www.w3.org/2000/svg">
<circle cx="32" cy="32" r="32" fill="white"/>
<path fill-rule="evenodd" clip-rule="evenodd" d="M59.7333 32C59.7333 16.6833 47.3166 4.26663 31.9999 4.26663C16.6832 4.26663 4.2666 16.6833 4.2666 32C4.2666 47.3167 16.6832 59.7333 31.9999 59.7333C47.3166 59.7333 59.7333 47.3167 59.7333 32ZM7.99971 31.9999C7.99971 19.0397 18.5061 8.53326 31.4664 8.53326C44.4267 8.53326 54.9331 19.0397 54.9331 31.9999C54.9331 44.9602 44.4267 55.4666 31.4664 55.4666C18.5061 55.4666 7.99971 44.9602 7.99971 31.9999Z" fill="#D0D0D0"/>
<path d="M27.52 42.304H22.8864V25.4848H19.2V21.44H27.52V42.304Z" fill="#666666"/>
<path d="M38.4156 42.7904C36.1798 42.7904 34.3878 42.2016 33.0396 41.024C31.7084 39.8464 30.9574 38.2421 30.7868 36.2112H35.3692C35.5569 37.9691 36.5724 38.848 38.4156 38.848C39.3542 38.848 40.0966 38.5408 40.6428 37.9264C41.1889 37.2949 41.462 36.4928 41.462 35.52C41.462 34.5301 41.1804 33.7365 40.6172 33.1392C40.071 32.5248 39.3116 32.2176 38.3388 32.2176C37.0588 32.2176 36.0774 32.6869 35.3948 33.6256H31.1708L31.7852 21.44H44.9692V25.408H36.0092L35.7788 29.3248C36.7516 28.7445 37.8694 28.4544 39.1324 28.4544C40.4977 28.4544 41.6924 28.736 42.7164 29.2992C43.7574 29.8624 44.5596 30.6816 45.1228 31.7568C45.703 32.8149 45.9932 34.0693 45.9932 35.52C45.9932 36.9536 45.6604 38.2251 44.9948 39.3344C44.3462 40.4267 43.4417 41.2715 42.2812 41.8688C41.1377 42.4832 39.8492 42.7904 38.4156 42.7904Z" fill="#666666"/>
</svg>
