<svg width="32" height="22" viewBox="0 0 32 22" fill="none" xmlns="http://www.w3.org/2000/svg"><rect width="31.625" height="22" rx="11" fill="#FFBC00"/><path fill-rule="evenodd" clip-rule="evenodd" d="M10.485 17.111c2.69 0 4.366-1.611 4.366-4.009v-6.99h-2.183V12.9c0 1.401-.78 2.293-2.183 2.293-1.403 0-2.19-.892-2.19-2.293V6.11H6.11v6.991c0 2.405 1.699 4.01 4.374 4.01zm8.285-.187v-3.41h2.01c2.197 0 3.664-1.468 3.664-3.694v-.015c0-2.225-1.467-3.694-3.665-3.694h-4.193v10.813h2.184zm0-5.178h1.474c1.25 0 1.988-.69 1.988-1.918v-.015c0-1.23-.737-1.911-1.988-1.911H18.77v3.844z" fill="#000"/></svg>