<svg width="20" height="20" viewBox="0 0 20 20" fill="none" xmlns="http://www.w3.org/2000/svg"><mask id="icons-share_svg__a" style="mask-type:alpha" maskUnits="userSpaceOnUse" x="0" y="0" width="20" height="20"><path fill="#fff" d="M0 0h20v20H0z"/></mask><g mask="url(#icons-share_svg__a)"><path fill-rule="evenodd" clip-rule="evenodd" d="M7.266 11.916a.445.445 0 01-.357-.428v-.897c0-3.212 2.676-5.826 5.965-5.826h.153V2.823a.45.45 0 01.288-.416.466.466 0 01.502.106l3.977 4.033a.44.44 0 010 .621l-3.978 4.034a.467.467 0 01-.501.105.45.45 0 01-.288-.416V8.948H12.3c-1.925 0-3.654 1.045-4.515 2.726a.474.474 0 01-.52.242zm.599-1.94A5.997 5.997 0 0112.3 8.052h1.186c.253 0 .46.2.46.448v1.279l2.88-2.922-2.88-2.922v1.279a.454.454 0 01-.46.448h-.612c-2.57 0-4.698 1.885-5.009 4.314zM2 4.548v13.03h16V9.743h-1.113v6.723H3.113V5.661h2.97V4.548H2z" fill="currentColor"/></g></svg>