<svg width="17" height="18" viewBox="0 0 17 18" fill="none" xmlns="http://www.w3.org/2000/svg"><rect x="1" y="1" width="16" height="16" rx="8" fill="#fff" stroke="#E6E6E6"/><path d="M8.32 11.2c0-.493.073-.897.22-1.21.153-.313.413-.607.78-.88.327-.253.56-.463.7-.63a.927.927 0 00.21-.6c0-.253-.087-.45-.26-.59-.173-.147-.417-.22-.73-.22-.32 0-.573.097-.76.29a.956.956 0 00-.27.69H6.47c0-.473.117-.9.35-1.28.24-.387.567-.69.98-.91.42-.22.897-.33 1.43-.33.567 0 1.053.1 1.46.3.407.2.717.48.93.84.213.353.32.757.32 1.21 0 .7-.337 1.31-1.01 1.83-.367.287-.62.537-.76.75-.133.213-.2.46-.2.74H8.32zm.88 2.84c-.307 0-.56-.1-.76-.3a.997.997 0 01-.3-.75c0-.307.1-.56.3-.76.2-.2.453-.3.76-.3s.56.1.76.3c.2.2.3.453.3.76s-.1.557-.3.75c-.2.2-.453.3-.76.3z" fill="#999"/></svg>