<svg width="17" height="17" viewBox="0 0 17 17" fill="none" xmlns="http://www.w3.org/2000/svg"><circle opacity=".9" cx="8.5" cy="8.5" r="8.5" fill="#fff"/><path fill-rule="evenodd" clip-rule="evenodd" d="M6.776 5.125v6.596H5.23V6.404H4V5.125h2.776zM13 9.576c0 1.393-1.094 2.299-2.529 2.299-1.512 0-2.434-.81-2.545-2.08h1.529c.06.526.376.834 1.016.834.633 0 1.017-.445 1.017-1.053 0-.615-.376-1.044-1.042-1.044-.487 0-.795.203-.983.446h-1.41l.206-3.853h4.4V6.38h-2.99L9.59 7.617c.3-.17.675-.275 1.12-.275 1.366 0 2.289.833 2.289 2.233z" fill="#000"/></svg>