<svg xmlns="http://www.w3.org/2000/svg" width="17" height="17" viewBox="0 0 17 17"><path d="M8.5 1.042c4.418 0 8 2.849 8 6.36 0 3.512-3.577 6.36-8 6.36l-.073-.001-.078-.002-.083-.003-.086-.004-.09-.005-.09-.005-.134-.01-.284-.022-.225-.02-.251-.025-3.437 2.264a.179.179 0 01-.196 0 .18.18 0 01-.078-.167l.002-.014.578-3.1C1.875 11.5.5 9.578.5 7.401c0-3.511 3.581-6.359 8-6.359zm-1.693 4.53h-.022a.629.629 0 00-.343.098.468.468 0 00-.173.19l-.011.026-.006.014-.017.044-.063.178-.044.116-.013.037-.044.115-.033.09-.035.096-.079.212-.042.114-.044.117-.044.121-.023.062-.023.062-.046.125-.047.126-.047.127-.023.063-.024.063-.046.125-.022.062-.023.06-.045.12-.11.3-.05.135-.018.047-.017.047-.032.086-.029.08-.026.068-.02.06-.02.048-.013.037-.014.038c-.07.2.034.418.233.49a.387.387 0 00.293-.017.384.384 0 00.186-.201l.007-.02.196-.561h1.572l.196.562a.38.38 0 00.486.237.384.384 0 00.237-.474l-.006-.019-1.152-3.173-.01-.019a.562.562 0 00-.507-.315zm4.882.004a.425.425 0 00-.425.408v3.177a.425.425 0 00.85.016v-.991l.243-.244 1.13 1.495a.378.378 0 00.517.09l.016-.011v-.004a.383.383 0 00.084-.523l-.011-.015-1.195-1.58 1.083-1.088a.376.376 0 00-.265-.644.371.371 0 00-.25.097l-.015.013-1.336 1.35v-1.12a.425.425 0 00-.426-.426zm-6.429.053H2.954a.394.394 0 00-.017.79h.767v2.784a.384.384 0 00.362.385h.104c.1 0 .197-.04.268-.112a.396.396 0 00.113-.253v-.02L4.55 6.419h.71a.395.395 0 00.017-.789H5.26zm3.898-.052c-.23 0-.416.18-.425.408v3.222a.356.356 0 00.337.358l.019.001h1.566v-.003a.36.36 0 00.017-.717H9.584V6.001a.425.425 0 00-.426-.425zm-2.39.957l.018.001.527 1.517H6.24l.529-1.518z" fill="#3C1E1E"/></svg>