<svg width="20" height="20" viewBox="0 0 20 20" fill="none" xmlns="http://www.w3.org/2000/svg"><mask id="icons-talks_svg__a" fill="#fff"><path fill-rule="evenodd" clip-rule="evenodd" d="M16.44 13.859A7.073 7.073 0 0018 9.442C18 5.332 14.418 2 10 2S2 5.332 2 9.442s3.582 7.442 8 7.442c.817 0 1.605-.114 2.348-.326l5.19 2.246-1.099-4.945z"/></mask><path d="M16.44 13.859l-.784-.622a1 1 0 00-.193.839l.976-.217zm-4.092 2.7l.397-.919a1 1 0 00-.671-.043l.274.961zm5.19 2.245l-.396.918a1 1 0 001.373-1.135l-.976.217zM17 9.442a6.072 6.072 0 01-1.344 3.795l1.566 1.244A8.072 8.072 0 0019 9.44h-2zM10 3c3.935 0 7 2.951 7 6.442h2C19 4.712 14.901 1 10 1v2zM3 9.442C3 5.95 6.065 3 10 3V1C5.099 1 1 4.713 1 9.442h2zm7 6.442c-3.935 0-7-2.951-7-6.442H1c0 4.73 4.099 8.442 9 8.442v-2zm2.073-.287a7.558 7.558 0 01-2.073.287v2c.91 0 1.79-.127 2.622-.364l-.549-1.923zm5.863 2.289l-5.191-2.246-.794 1.836 5.19 2.246.795-1.836zm-2.473-3.81l1.1 4.945 1.952-.434-1.1-4.945-1.952.434z" fill="#666" mask="url(#icons-talks_svg__a)"/></svg>