<svg width="52" height="22" viewBox="0 0 52 22" fill="none" xmlns="http://www.w3.org/2000/svg"><path opacity=".1" fill-rule="evenodd" clip-rule="evenodd" d="M47.69 17.59H52V0H4.31v4.41H0V22h47.69v-4.41zM8.296 6.024c-1.087 0-1.962.28-2.626.842-.664.562-.996 1.301-.996 2.218 0 .758.218 1.366.655 1.825.436.458 1.119.781 2.047.968l1.546.309c.79.14 1.184.468 1.184.983a.87.87 0 01-.41.765c-.274.182-.657.273-1.15.273-.622 0-1.135-.143-1.539-.428a1.673 1.673 0 01-.717-1.158H4.285c.084 1.039.506 1.858 1.268 2.457.761.599 1.722.898 2.883.898 1.133 0 2.043-.276 2.73-.829.687-.552 1.03-1.286 1.03-2.203 0-.767-.24-1.36-.724-1.776-.483-.416-1.202-.723-2.158-.919l-1.17-.238c-.456-.094-.794-.225-1.017-.394-.223-.168-.335-.407-.335-.715 0-.365.149-.653.446-.864.297-.21.696-.316 1.198-.316 1.068 0 1.671.478 1.81 1.432h1.992c-.055-.59-.215-1.097-.48-1.523a2.785 2.785 0 00-.99-.975 4.613 4.613 0 00-1.204-.484 5.4 5.4 0 00-1.267-.148zM21 8.087V6.235h-8.344v1.852h3.162v7.692h2.02V8.087H21zm5.822 5.854l.738 1.838h2.131l-4.067-9.6H23.73l-4.082 9.6h2.146l.738-1.838h4.29zm-.739-1.84H23.27l1.393-3.494 1.42 3.495zm13.052-1.641h-4.973v1.796h2.8a2.799 2.799 0 01-.989 1.306c-.446.318-.99.477-1.63.477-.882 0-1.592-.283-2.13-.85-.54-.566-.809-1.255-.809-2.07 0-.964.279-1.73.836-2.302.557-.57 1.282-.856 2.173-.856 1.263 0 2.085.538 2.465 1.614h2.145c-.26-1.132-.822-2.005-1.685-2.618-.864-.612-1.848-.919-2.953-.919-1.42 0-2.612.477-3.573 1.432-.96.954-1.441 2.175-1.441 3.663 0 1.338.469 2.48 1.406 3.425.938.945 2.122 1.418 3.552 1.418 1.384 0 2.433-.506 3.148-1.516l.112 1.32h1.546v-5.32zm3.58-2.387h5V6.235h-7.02v9.544h7.02v-1.838h-5v-1.952h4.428v-1.838h-4.429V8.073z" fill="#000"/></svg>