<svg width="40" height="40" viewBox="0 0 40 40" fill="none" xmlns="http://www.w3.org/2000/svg"><path fill-rule="evenodd" clip-rule="evenodd" d="M20 17.282l-3.492-6.252c-.503-.9-1.296-2.015-2.384-2.839C13.054 7.381 11.91 7 10.625 7 7.002 7 4 9.83 4 14.29c0 2.22.853 4.264 2.982 6.78 2.23 2.636 5.5 5.384 9.907 9.063l.008.007A702.69 702.69 0 0120 32.741a705.77 705.77 0 013.106-2.604l.006-.005c4.407-3.679 7.677-6.426 9.907-9.062C35.147 18.554 36 16.51 36 14.29 36 9.83 32.998 7 29.375 7c-1.285 0-2.43.38-3.499 1.191-1.088.824-1.88 1.939-2.384 2.84L20 17.281zm1.778 16.97l.004.004-.002-.002-.002-.001zm3.897-1.049C34.301 26.001 40 21.243 40 14.29 40 7.854 35.432 3 29.375 3c-2.17 0-4.16.674-5.915 2.003-.299.226-.58.464-.844.708C21.395 6.841 20.542 8.11 20 9.08c-.542-.97-1.395-2.24-2.616-3.369a11.268 11.268 0 00-.844-.708C14.786 3.673 12.796 3 10.625 3 4.568 3 0 7.854 0 14.29c0 6.954 5.699 11.712 14.326 18.914a492.638 492.638 0 014.851 4.088 1.266 1.266 0 001.646 0 488.173 488.173 0 014.852-4.089z" fill="currentColor"/></svg>