<svg xmlns="http://www.w3.org/2000/svg" xmlns:xlink="http://www.w3.org/1999/xlink" width="200" height="178" viewBox="0 0 200 178"><defs><filter id="icons-contract_svg__a" width="132.3%" height="224.2%" x="-8.1%" y="-59.1%" filterUnits="objectBoundingBox"><feOffset dx="11" dy="1" in="SourceAlpha" result="shadowOffsetOuter1"/><feGaussianBlur in="shadowOffsetOuter1" result="shadowBlurOuter1" stdDeviation="5"/><feColorMatrix in="shadowBlurOuter1" values="0 0 0 0 0 0 0 0 0 0 0 0 0 0 0 0 0 0 0.12 0"/></filter><filter id="icons-contract_svg__c"><feColorMatrix in="SourceGraphic" values="0 0 0 0 0.062745 0 0 0 0 0.062745 0 0 0 0 0.062745 0 0 0 1.000000 0"/></filter><path id="icons-contract_svg__b" d="M20 112l130-1v33l-130-1z"/></defs><g fill="none" fill-rule="evenodd"><path fill="#FFF" stroke="#DFDFDF" stroke-width="2" d="M196 1a2.99 2.99 0 012.121.879A2.99 2.99 0 01199 4h0v173H1V4c0-.828.336-1.578.879-2.121A2.99 2.99 0 014 1h0z"/><use fill="#000" filter="url(#icons-contract_svg__a)" xlink:href="#icons-contract_svg__b"/><use fill="#FFBC00" xlink:href="#icons-contract_svg__b"/><g filter="url(#icons-contract_svg__c)"><path fill="#A6A6A6" d="M43.531 131.938V135H40.47v-3.063h3.06zM44.625 121l-1.094 9.625H40.47L39.375 121h5.25z"/></g><path fill="#101010" fill-rule="nonzero" d="M64.312 130.48v-9.17H62.45v9.17h1.862zm-3.808-1.918v-6.23h-6.258v6.23h6.258zm-1.806-1.456h-2.632v-3.318h2.632v3.318zm5.936 6.832v-1.484h-7.056v-2.786H55.73v4.27h8.904zm11.737-5.446v-2.87h1.708v-1.512H76.37v-2.8h-1.848v7.182h1.848zm-9.562.308c3.822-.994 5.992-3.318 5.992-6.748h-6.104v1.47h4.088c-.266 1.694-1.834 3.108-4.704 3.822l.728 1.456zm9.562 5.25v-5.04h-8.358v5.04h8.358zm-1.82-1.442h-4.732v-2.142h4.732v2.142zm17.985-3.626v-7.672h-1.848v3.108h-1.932v1.498h1.932v3.066h1.848zm-9.912 0c1.498-.504 2.52-1.554 3.08-2.856.56 1.134 1.526 2.044 2.926 2.506l.896-1.442c-1.96-.644-2.856-2.156-2.912-3.626h2.506v-1.484h-6.93v1.484h2.534c-.056 1.61-.994 3.248-3.038 3.962l.938 1.456zm5.558 5.236c2.73 0 4.41-.91 4.41-2.478s-1.68-2.478-4.41-2.478c-2.744 0-4.424.91-4.424 2.478s1.68 2.478 4.424 2.478zm0-1.4c-1.694 0-2.576-.35-2.576-1.078 0-.728.882-1.078 2.576-1.078 1.68 0 2.562.35 2.562 1.078 0 .728-.882 1.078-2.562 1.078zm17.869-.112v-1.498h-4.928v-2.366h3.654v-6.734h-1.82v2.002H97.44v-2.002h-1.834v6.734h3.668v2.366h-4.9v1.498h11.676zm-3.094-5.334H97.44v-1.806h5.516v1.806zm17.047 6.804v-6.426h1.806v-1.526h-1.806v-4.928h-1.848v12.88h1.848zm-9.184-2.198c4.284-2.17 5.754-5.488 5.754-9.352h-6.076v1.498h4.214c-.336 2.856-1.932 4.9-4.928 6.44l1.036 1.414zm22.419-3.024v-7.63h-1.862v7.63h1.862zm-2.716-.784l-.21-1.47c-1.68.266-3.178.336-5.306.35v-1.12h4.102v-3.892h-5.936v1.484h4.116v1.036h-4.102v3.976h1.134c2.562 0 4.284-.056 6.202-.364zm2.716 5.88v-4.522h-8.582v4.522h8.582zm-1.806-1.442h-4.956v-1.624h4.956v1.624z"/><rect width="100" height="16" x="20" y="85" fill="#D0D0D0" rx="2"/><rect width="60" height="16" x="20" y="59" fill="#D0D0D0" rx="2"/><path d="M172.524 16l3.283 3.835 5.049.05-.39 5.034L184 28.524l-3.835 3.283-.05 5.049-5.034-.39L171.476 40l-3.283-3.835-5.049-.05.39-5.034L160 27.476l3.835-3.283.05-5.049 5.034.39L172.524 16zm2.89 7.5l-4.625 5.344-2.355-2.268-1.684 1.749 4.2 4.044 6.3-7.28-1.836-1.589z" fill="#FFBC00"/><path fill="#101010" fill-rule="nonzero" d="M74.288 29.92v-3.584h1.952v-1.744h-1.952V21.04h-2.112v8.88h2.112zm-10.72-.24c1.696-.56 2.848-1.696 3.504-3.12.64 1.296 1.744 2.336 3.344 2.848l1.072-1.632c-2.32-.752-3.328-2.496-3.376-4.192h2.88v-1.68h-7.968v1.68h2.928c-.048 1.824-1.088 3.664-3.488 4.448l1.104 1.648zm10.72 6.112v-5.216h-9.84v1.68h7.728v3.536h2.112zm14.816-8.768v-1.68h-1.76V23.12h1.872v-1.68h-10.96v1.68h1.872v2.224h-1.776v1.68h10.752zm-3.856-1.68h-3.024V23.12h3.024v2.224zm3.568 10.272v-4.8H84.8v-1.2h5.6v-1.68H77.088v1.68h5.6v1.2H78.64v4.8h10.176zm-2.08-1.664h-6.032v-1.488h6.032v1.488zm20.736 1.824V21.024h-2v14.752h2zm-3.056-.64V21.36h-1.968v3.568h-1.424c.08-.688.128-1.392.128-2.144h-5.728v1.68h3.632c-.272 2.88-1.552 5.008-4.464 6.784l1.2 1.472c2.752-1.632 4.224-3.68 4.88-6.112h1.776v2H100.4v1.696h2.048v4.832h1.968zm16.384-5.408v-1.856h1.888v-1.728H120.8v-1.472h1.888V22.96H120.8v-1.92h-2.112v8.688h2.112zm-7.488-.672c2.256 0 3.984-1.504 3.984-3.6s-1.728-3.616-3.984-3.616c-2.272 0-4 1.52-4 3.616s1.728 3.6 4 3.6zm0-1.776c-1.12 0-1.936-.688-1.936-1.824 0-1.152.816-1.824 1.936-1.824 1.104 0 1.936.672 1.936 1.824 0 1.136-.832 1.824-1.936 1.824zm7.488 8.512V30.32h-9.824v1.696h7.712v3.776h2.112zm15.168.016V21.024h-2.112v4.624h-2.832v1.696h2.832v8.464h2.112zm-11.264-2.992c1.648-.832 2.752-2.368 3.392-4.256.608 1.776 1.68 3.216 3.296 4l1.248-1.68c-2.432-1.088-3.504-3.792-3.504-6.576v-2.128h-2.128v2.128c0 2.8-1.12 5.664-3.616 6.816l1.312 1.696z"/></g></svg>