<svg width="32" height="32" viewBox="0 0 32 32" fill="none" xmlns="http://www.w3.org/2000/svg"><path d="M30 16.194V30H1V6h7.365" stroke="currentColor" stroke-width="1.5"/><path fill-rule="evenodd" clip-rule="evenodd" d="M8.746 20.974c.07.018.14.026.21.026.364 0 .71-.218.875-.56 1.796-3.695 5.409-5.99 9.429-5.99h1.518v4.268c0 .402.237.763.6.914a.941.941 0 001.048-.23l8.306-8.867a1.004 1.004 0 000-1.366L22.426.302a.939.939 0 00-1.048-.23.987.987 0 00-.6.913v4.27h-.32C13.59 5.255 8 11 8 18.062v1.97c0 .457.313.838.746.942zm1.251-4.265c.65-5.34 5.095-9.484 10.461-9.484h1.278a.972.972 0 00.958-.985V3.429l6.017 6.423-6.017 6.423v-2.81a.972.972 0 00-.958-.986H19.26c-3.609 0-6.94 1.566-9.263 4.23z" fill="currentColor"/></svg>