<svg width="24" height="24" viewBox="0 0 24 24" fill="none" xmlns="http://www.w3.org/2000/svg"><path fill-rule="evenodd" clip-rule="evenodd" d="M16.746 3c3.067 0 5.379 2.525 5.379 5.874 0 .676-.1 1.312-.293 1.923l-1.071-1.02c.03-.2.05-.403.058-.612l.006-.29c0-2.656-1.757-4.575-4.079-4.575-.807 0-1.534.253-2.195.768-.503.391-.928.903-1.268 1.47l-.14.246L12 8.886l-1.142-2.102c-.361-.664-.834-1.269-1.409-1.716A3.47 3.47 0 007.254 4.3c-2.322 0-4.079 1.92-4.079 4.574 0 1.13.256 2.07 1.016 3.176l.21.293c.11.148.23.3.36.456l.272.317.297.33.16.17.339.35.368.367.398.383.21.2.678.625.753.675.829.728 1.82 1.569-.863.973-2.46-2.121-.866-.765-.544-.494c-.177-.164-.35-.325-.517-.485l-.488-.476c-2.053-2.05-3.272-3.919-3.272-6.27C1.875 5.524 4.187 3 7.254 3a4.77 4.77 0 012.994 1.042c.852.663 1.418 1.507 1.752 2.121.334-.614.9-1.458 1.752-2.12A4.764 4.764 0 0116.746 3z" fill="#333"/><path d="M18.183 17.213l-3.89 3.903-.92-.92 3.89-3.902.92.919z" fill="#333"/><path fill-rule="evenodd" clip-rule="evenodd" d="M19.671 18.557l3.395-3.395-3.738-3.739-3.396 3.395-.984-.984-.956.956 5.575 5.574.955-.956-.851-.851zm-.343-5.295l1.899 1.899-2.512 2.512-1.9-1.9 2.512-2.511z" fill="#333"/></svg>