<svg width="28" height="28" viewBox="0 0 28 28" fill="none" xmlns="http://www.w3.org/2000/svg">
<path d="M16.4351 5.50745C18.3476 6.05585 19.9834 7.21194 21.1324 8.78577C21.3766 9.12032 21.3034 9.58951 20.9689 9.83375C20.6343 10.078 20.1651 10.0048 19.9209 9.67024C18.9668 8.36344 17.6107 7.405 16.0217 6.94934C12.1277 5.83277 8.06591 8.08427 6.94934 11.9782C5.83277 15.8722 8.08427 19.934 11.9782 21.0505C15.8721 22.1671 19.934 19.9156 21.0505 16.0217C21.2559 15.3056 21.3717 14.6213 21.3992 13.9683C21.4167 13.5545 21.7663 13.2332 22.1801 13.2506C22.594 13.2681 22.9153 13.6177 22.8979 14.0315C22.8652 14.8067 22.7296 15.6081 22.4924 16.4351C21.1475 21.1254 16.255 23.8373 11.5648 22.4924C6.87448 21.1475 4.16253 16.255 5.50744 11.5648C6.85236 6.87448 11.7448 4.16253 16.4351 5.50745Z" fill="#FFAA00"/>
<path d="M21.1076 5.12005C21.4864 5.09357 21.8191 5.35314 21.8942 5.71486L21.9081 5.81591L22.2221 10.3057C22.2486 10.6845 21.989 11.0172 21.6273 11.0923L21.5262 11.1062L17.0364 11.4202C16.6232 11.4491 16.2648 11.1375 16.2359 10.7243C16.2094 10.3456 16.469 10.0128 16.8307 9.93777L16.9318 9.92384L20.6729 9.66166L20.4118 5.92054C20.3853 5.54177 20.6449 5.20906 21.0066 5.13398L21.1076 5.12005Z" fill="#FFAA00"/>
</svg>
