<svg width="20" height="20" viewBox="0 0 20 20" fill="none" xmlns="http://www.w3.org/2000/svg"><path fill-rule="evenodd" clip-rule="evenodd" d="M6.832 5.464l2.637-4.09A1.904 1.904 0 0111.995.74a1.964 1.964 0 01.853 2.484l-.953 2.24H16.6c1 0 1.819.772 1.894 1.752l.006.148c0 .475-.178.914-.477 1.247l-.095.096.083.081c.271.286.447.66.482 1.071l.007.155c0 .442-.168.849-.446 1.155l-.081.082.038.037c.271.286.447.66.482 1.071l.007.155c0 .442-.168.849-.446 1.155l-.038.039.034.033c.249.26.41.603.444.98l.006.143a1.6 1.6 0 01-1.6 1.6H7a5.5 5.5 0 01-5.5-5.5v-4a1.5 1.5 0 011.5-1.5h3.832zm5.096-2.63a.964.964 0 00-.419-1.22l-.106-.05a.904.904 0 00-1.094.35l-2.931 4.55H3a.5.5 0 00-.5.5v4a4.5 4.5 0 004.5 4.5h9.9a.6.6 0 00.6-.6c0-.315-.235-.581-.514-.619l-.5-.035.027-.915.398-.073a.72.72 0 00.589-.707.782.782 0 00-.609-.763l-.392-.088.003-.867.41-.075a.72.72 0 00.588-.707.782.782 0 00-.609-.763l-.392-.088.003-.864.365-.102a.866.866 0 00.633-.834.9.9 0 00-.9-.9h-6.216l1.544-3.63z" fill="currentColor"/><path fill-rule="evenodd" clip-rule="evenodd" d="M3 5.464h4.5v11H7a5.5 5.5 0 01-5.5-5.5v-4a1.5 1.5 0 011.5-1.5zm3.5 9.972V6.464H3a.5.5 0 00-.5.5v4a4.5 4.5 0 003.872 4.457l.128.015zm7.5-4.172a.5.5 0 01.5-.5h3a.5.5 0 010 1h-3a.5.5 0 01-.5-.5zm0 2.5a.5.5 0 01.5-.5h3a.5.5 0 010 1h-3a.5.5 0 01-.5-.5zm0-4.999a.5.5 0 01.5-.5h3a.5.5 0 010 1h-3a.5.5 0 01-.5-.5z" fill="currentColor"/></svg>