<svg width="24" height="24" viewBox="0 0 24 24" fill="none" xmlns="http://www.w3.org/2000/svg"><path fill-rule="evenodd" clip-rule="evenodd" d="M12 7.68c-2.344 0-4.244 1.912-4.244 4.271 0 2.36 1.9 4.273 4.244 4.273s4.244-1.913 4.244-4.273c-.002-2.358-1.9-4.269-4.244-4.272zm9.625 3.673v1.197L24 14.935l-3.434 5.985-3.244-.88-1.025.603L15.433 24H8.567l-.863-3.357-1.024-.603-3.245.88L0 14.935l2.375-2.385v-1.197L0 8.968l3.434-5.985 3.245.88 1.024-.604L8.566 0h6.867l.864 3.26 1.025.603 3.244-.88L24 8.968l-2.375 2.385z" fill="currentColor"/></svg>