<svg xmlns="http://www.w3.org/2000/svg" width="64" height="64" viewBox="0 0 64 64"><g fill="none" fill-rule="evenodd"><circle cx="32" cy="32" r="32" fill="#FFF"/><path fill="#EF5350" fill-rule="nonzero" d="M32 4.267c15.317 0 27.733 12.416 27.733 27.733S47.317 59.733 32 59.733 4.267 47.317 4.267 32 16.683 4.267 32 4.267zm0 4.266C19.04 8.533 8.533 19.04 8.533 32 8.533 44.96 19.04 55.467 32 55.467c12.96 0 23.467-10.507 23.467-23.467C55.467 19.04 44.96 8.533 32 8.533z"/><path fill="#000" fill-rule="nonzero" d="M26.957 42.837V21.973h-8.32v4.045h3.686v16.82h4.634zm11.597 0l5.376-8.524c.648-1.042 1.126-1.984 1.433-2.83a7.838 7.838 0 00.461-2.7c0-1.45-.354-2.726-1.062-3.827a7.18 7.18 0 00-2.868-2.56c-1.203-.606-2.53-.91-3.98-.91-1.451 0-2.778.304-3.981.91a7.135 7.135 0 00-2.867 2.573c-.709 1.109-1.063 2.389-1.063 3.84 0 1.365.333 2.585.999 3.66a6.886 6.886 0 002.7 2.51c1.135.596 2.377.895 3.725.895.222 0 .418-.034.589-.102l-4.736 7.065h5.274zm-.64-10.752c-1.024 0-1.844-.315-2.458-.947-.614-.631-.922-1.425-.922-2.38 0-.956.308-1.75.922-2.381.614-.632 1.434-.948 2.458-.948 1.024 0 1.843.316 2.457.948.615.631.922 1.425.922 2.38 0 .956-.307 1.75-.922 2.381-.614.632-1.433.947-2.457.947z"/></g></svg>