<svg width="16" height="16" viewBox="0 0 16 16" fill="none" xmlns="http://www.w3.org/2000/svg"><path fill="#101010" d="M0 0h16v16H0z"/><path d="M5.34 5.93c0-.62.53-1.02 1.28-1.02.76 0 1.27.4 1.27 1.02 0 .63-.51 1.03-1.27 1.03-.75 0-1.28-.4-1.28-1.03zm4.08 2.33c-.72.11-1.5.17-2.27.22V7.7c1.02-.17 1.7-.85 1.7-1.77 0-1.07-.92-1.8-2.23-1.8s-2.24.73-2.24 1.8c0 .93.7 1.61 1.74 1.77v.82c-.81.03-1.58.03-2.23.03l.13.84c1.51 0 3.61-.03 5.47-.38l-.07-.75zm-3.25 1.8H5.14v2.53h6.15v-.83H6.17v-1.7zm4.81-3.36V3.75H9.95v6.9h1.03v-3.1h1.24V6.7h-1.24z" fill="#fff"/></svg>