<svg xmlns="http://www.w3.org/2000/svg" xmlns:xlink="http://www.w3.org/1999/xlink" width="266" height="55" viewBox="0 0 266 55"><defs><filter id="img-tooltip_svg__a" width="110.4%" height="165%" x="-5.2%" y="-27.5%" filterUnits="objectBoundingBox"><feOffset dy="2" in="SourceAlpha" result="shadowOffsetOuter1"/><feGaussianBlur in="shadowOffsetOuter1" result="shadowBlurOuter1" stdDeviation="4"/><feComposite in="shadowBlurOuter1" in2="SourceAlpha" operator="out" result="shadowBlurOuter1"/><feColorMatrix in="shadowBlurOuter1" values="0 0 0 0 0 0 0 0 0 0 0 0 0 0 0 0 0 0 0.15 0"/></filter><path id="img-tooltip_svg__b" d="M14 0l4 4h230a2 2 0 012 2v32a2 2 0 01-2 2H2a2 2 0 01-2-2V6a2 2 0 012-2h8l4-4z"/></defs><g transform="translate(8 5)" fill="none" fill-rule="evenodd"><use fill="#000" filter="url(#img-tooltip_svg__a)" xlink:href="#img-tooltip_svg__b"/><path fill="#FFF" stroke="#D0D0D0" stroke-linejoin="square" d="M14 .707L17.793 4.5H248c.414 0 .79.168 1.06.44.272.27.44.646.44 1.06h0v32c0 .414-.168.79-.44 1.06a1.49 1.49 0 01-1.06.44h0H2a1.49 1.49 0 01-1.06-.44A1.484 1.484 0 01.5 38h0V6c0-.414.168-.79.44-1.06A1.49 1.49 0 012 4.5h8.207L14 .707z"/></g></svg>