<svg width="104" height="45" viewBox="0 0 104 45" fill="none" xmlns="http://www.w3.org/2000/svg"><g fill="#A6A6A6"><path d="M14.608.5l-2.858.624V25.23h2.858V.5zm4.382 15.781l5.5-6.924-2.238-1.62-6.619 8.7 7.52 9.232 2.207-1.716-6.37-7.672z"/><path fill-rule="evenodd" clip-rule="evenodd" d="M29.616 16.702c1.148-.904 2.822-1.357 5.016-1.357h3.296v-1.091c0-2.641-1.162-3.96-3.481-3.96a9.5 9.5 0 00-2.345.312c-.819.207-1.57.467-2.254.779l-.839-2.027A11.62 11.62 0 0131.76 8.25a11.22 11.22 0 012.872-.39c4.02 0 6.028 2.152 6.028 6.456V25.23h-2.11l-.343-1.871a10.19 10.19 0 01-2.718 1.591c-.963.375-1.879.56-2.75.56-1.512 0-2.697-.43-3.557-1.293-.86-.863-1.29-2.053-1.29-3.57 0-1.726.574-3.042 1.725-3.946zm7.32 5.334a6.91 6.91 0 00.992-.766v-3.99h-2.972c-1.506 0-2.604.259-3.295.778-.69.52-1.036 1.342-1.036 2.465 0 1.788.876 2.681 2.63 2.681a5.08 5.08 0 001.222-.155c.422-.104.845-.24 1.268-.405.422-.167.82-.37 1.191-.608z"/><path d="M58.486 9.358l-2.237-1.622-6.617 8.7 7.519 9.233 2.205-1.717-6.368-7.671 5.498-6.923zM45.749.5v24.731h2.857V.501H45.75z"/><path fill-rule="evenodd" clip-rule="evenodd" d="M74.658 25.231h-2.113l-.342-1.871a10.178 10.178 0 01-2.718 1.591c-.964.375-1.88.56-2.75.56-1.513 0-2.698-.43-3.558-1.293-.86-.863-1.289-2.053-1.289-3.57 0-1.726.575-3.042 1.724-3.946 1.151-.904 2.822-1.357 5.018-1.357h3.294v-1.091c0-2.641-1.16-3.96-3.479-3.96-.747 0-1.527.103-2.347.312-.819.207-1.57.467-2.251.779l-.84-2.027c.85-.479 1.766-.848 2.75-1.108a11.21 11.21 0 012.873-.39c4.019 0 6.028 2.152 6.028 6.456V25.23zm-3.724-3.195c.37-.24.7-.495.99-.766v-3.99h-2.97c-1.506 0-2.605.259-3.294.778-.693.52-1.037 1.342-1.037 2.465 0 1.788.877 2.681 2.63 2.681.39 0 .8-.05 1.222-.155.422-.104.846-.24 1.269-.405a6.94 6.94 0 001.19-.608zm15.226 3.569c2.38 0 4.24-.758 5.576-2.276 1.337-1.517 2.005-3.691 2.005-6.518 0-2.869-.674-5.073-2.022-6.612-1.344-1.538-3.199-2.307-5.56-2.307-2.34 0-4.19.769-5.547 2.307-1.357 1.539-2.035 3.743-2.035 6.612 0 2.827.674 5 2.021 6.518 1.345 1.518 3.2 2.276 5.561 2.276zm-3.434-13.722c.797-1.123 1.942-1.684 3.433-1.684 1.511 0 2.666.561 3.465 1.684.797 1.122 1.196 2.766 1.196 4.928 0 2.142-.4 3.758-1.196 4.85-.799 1.09-1.953 1.637-3.465 1.637-1.491 0-2.636-.546-3.433-1.638-.799-1.091-1.197-2.707-1.197-4.85 0-2.161.398-3.805 1.197-4.927z"/><path d="M5.146 40.531H1.482v2.412h4.745V44.3H0v-8.534h6.107v1.356H1.482v2.053h3.664v1.356zm8.545 1.121l-4.565-5.886h-1.26V44.3h1.482v-5.887l4.564 5.887h1.261v-8.534h-1.482v5.886zm5.523-4.53H16.69v-1.356h6.527v1.356h-2.522V44.3h-1.482v-7.178zm7.138 3.409h3.664v-1.356h-3.664v-2.053h4.625v-1.356H24.87V44.3h6.227v-1.357h-4.745v-2.412z"/><path fill-rule="evenodd" clip-rule="evenodd" d="M36.36 35.766c1.586 0 2.782 1.14 2.782 2.651 0 1.64-1.294 2.334-1.647 2.492l1.946 3.39h-1.627l-.023-.04-1.78-3.19h-1.794v3.23h-1.481v-8.533h3.623zm-2.142 3.947h2.141c.742 0 1.301-.557 1.301-1.296 0-.738-.559-1.295-1.3-1.295h-2.142v2.591z"/><path d="M46.858 35.783h-6.527v1.357h2.523v7.177h1.482V37.14h2.522v-1.357z"/><path fill-rule="evenodd" clip-rule="evenodd" d="M50.197 35.766h1.428l.021.049 3.53 8.484H53.62l-.9-2.213h-3.616l-.901 2.213h-1.556l3.55-8.533zm.714 1.792l-1.263 3.172h2.526l-1.263-3.172z"/><path d="M56.511 44.3h1.482v-8.534H56.51V44.3zm4.992-8.534l4.565 5.886v-5.886h1.482V44.3h-1.261l-4.565-5.887V44.3h-1.482v-8.534h1.26zm12.571 4.018l-3.204-4.018h-1.26v8.533h1.482v-5.952l2.982 3.728 2.983-3.728V44.3h1.482v-8.533h-1.26l-3.205 4.018zm11.689.747h-3.665v2.412h4.745V44.3h-6.226v-8.534h6.107v1.356h-4.626v2.053h3.665v1.356zm8.785 1.121l-4.565-5.886h-1.26V44.3h1.481v-5.887L94.77 44.3h1.26v-8.534h-1.48v5.886zm2.925-4.53v-1.356H104v1.356h-2.522V44.3h-1.482v-7.178h-2.523z"/></g></svg>