<svg width="71" height="11" viewBox="0 0 71 11" fill="none" xmlns="http://www.w3.org/2000/svg"><path d="M4.668.06c.72 0 1.372.136 1.956.408a3.44 3.44 0 011.392 1.14 2.98 2.98 0 01.576 1.644H6.336c-.064-.432-.252-.768-.564-1.008-.312-.24-.728-.36-1.248-.36-.496 0-.884.092-1.164.276-.28.176-.42.416-.42.72 0 .24.088.436.264.588.176.152.444.288.804.408.368.112.9.24 1.596.384 1.08.224 1.852.596 2.316 1.116.472.512.708 1.156.708 1.932 0 .608-.176 1.14-.528 1.596-.344.456-.816.804-1.416 1.044-.6.248-1.268.372-2.004.372-.8 0-1.52-.14-2.16-.42-.632-.272-1.136-.664-1.512-1.176-.368-.512-.568-1.112-.6-1.8h2.244c.064.472.288.852.672 1.14.392.28.896.42 1.512.42.448 0 .816-.1 1.104-.3.296-.2.444-.46.444-.78a.885.885 0 00-.24-.636c-.152-.168-.4-.312-.744-.432-.336-.12-.808-.236-1.416-.348-1.096-.208-1.916-.556-2.46-1.044S.708 3.768.708 2.88c0-.576.172-1.076.516-1.5.352-.424.828-.748 1.428-.972C3.252.176 3.924.06 4.668.06zm13.056 2.172h-3.18v7.848H12.36V2.232H9.18V.3h8.544v1.932zm5.692 5.952h-3.792l-.684 1.896h-2.256L20.476.3h2.268l3.792 9.78H24.1l-.684-1.896zm-.672-1.896L21.52 2.88l-1.224 3.408h2.448zm9.043-6.24c.832 0 1.588.144 2.268.432.688.288 1.26.68 1.716 1.176.464.496.792 1.052.984 1.668h-2.4c-.216-.376-.548-.68-.996-.912-.44-.24-.948-.36-1.524-.36-.584 0-1.112.136-1.584.408a2.878 2.878 0 00-1.116 1.116c-.264.472-.396 1.008-.396 1.608 0 .6.132 1.144.396 1.632.272.48.644.856 1.116 1.128.472.272 1 .408 1.584.408.488 0 .932-.088 1.332-.264.4-.176.724-.408.972-.696.256-.296.424-.608.504-.936h-2.988V4.608h5.316v.576c0 .976-.228 1.856-.684 2.64a4.796 4.796 0 01-1.86 1.824c-.784.448-1.664.672-2.64.672-.992 0-1.888-.224-2.688-.672a4.882 4.882 0 01-1.872-1.824c-.448-.784-.672-1.664-.672-2.64 0-.976.224-1.852.672-2.628A4.856 4.856 0 0129.1.72c.8-.448 1.696-.672 2.688-.672zM38.223.3h7.272v1.896h-5.088v1.992h4.668v1.896h-4.668v2.1h5.196v1.896h-7.38V.3zm16.959 10.02c-1 0-1.904-.224-2.713-.672a4.859 4.859 0 01-1.883-1.824c-.456-.784-.684-1.664-.684-2.64 0-.976.227-1.852.684-2.628A4.833 4.833 0 0152.469.72c.809-.448 1.712-.672 2.712-.672 1 0 1.9.224 2.7.672a4.812 4.812 0 011.897 1.836c.456.776.684 1.652.684 2.628 0 .976-.229 1.856-.684 2.64a4.837 4.837 0 01-1.896 1.824c-.8.448-1.7.672-2.7.672zm0-1.968c.584 0 1.111-.136 1.584-.408.471-.272.84-.648 1.104-1.128a3.295 3.295 0 00.408-1.632c0-.608-.136-1.152-.408-1.632a2.878 2.878 0 00-1.104-1.128c-.472-.272-1-.408-1.584-.408-.585 0-1.113.136-1.585.408a2.964 2.964 0 00-1.116 1.128c-.264.48-.395 1.024-.395 1.632 0 .6.132 1.144.395 1.632.273.48.645.856 1.116 1.128.472.272 1 .408 1.584.408zM61.709.3h1.824l4.884 5.88v-6h2.184v9.78h-1.824l-4.884-5.88v6H61.71V.3z" fill="#000"/></svg>