<svg width="64" height="64" viewBox="0 0 64 64" fill="none" xmlns="http://www.w3.org/2000/svg"><path fill-rule="evenodd" clip-rule="evenodd" d="M8.378 8.378c11.17-11.17 29.282-11.17 40.452 0 10.602 10.602 11.142 27.456 1.62 38.694L64 60.63 60.629 64 47.076 50.446c-11.239 9.526-28.095 8.988-38.698-1.616-11.17-11.17-11.17-29.281 0-40.452zm3.371 3.371c-9.309 9.309-9.309 24.401 0 33.71 9.309 9.31 24.401 9.31 33.71 0 9.31-9.309 9.31-24.401 0-33.71-9.309-9.309-24.401-9.309-33.71 0z" fill="#666"/></svg>