<svg xmlns="http://www.w3.org/2000/svg" width="848" height="168" viewBox="0 0 848 168"><g fill="none" fill-rule="evenodd"><rect width="848" height="168" fill="#F2F2F2" rx="2"/><g stroke="#A0A0A0" stroke-width="2"><path d="M169 51.667h20"/><path stroke-linecap="square" d="M182.5 45l6 6.667-6 6.666"/></g><g transform="translate(510 96)"><rect width="108" height="42" x="-1" y="-1" fill="#FFF" stroke="#FDC324" stroke-width="2" rx="2"/><text fill="#101010" font-family="NotoSansCJKkr-Medium, Noto Sans CJK KR" font-size="14" font-weight="400" letter-spacing="-.261"><tspan x="20.009" y="26">지원금 지급</tspan></text></g><g stroke="#A0A0A0" stroke-width="2"><path d="M401 51.667h20"/><path stroke-linecap="square" d="M414.5 45l6 6.667-6 6.666"/></g><g stroke="#A0A0A0" stroke-width="2"><path d="M637 51.667h20"/><path stroke-linecap="square" d="M650.5 45l6 6.667-6 6.666"/></g><path d="M787 51.667h61" stroke="#A0A0A0" stroke-width="2"/><g transform="translate(304 96)"><rect width="152" height="42" x="-1" y="-1" fill="#FFF" stroke="#373D45" stroke-width="2" rx="2"/><text fill="#101010" font-family="NotoSansCJKkr-Medium, Noto Sans CJK KR" font-size="14" font-weight="400" letter-spacing="-.261"><tspan x="20.192" y="26">의무 작품 유지 기간</tspan></text></g><g stroke="#A0A0A0" stroke-width="2"><path d="M472 115.667h20"/><path stroke-linecap="square" d="M485.5 109l6 6.667-6 6.666"/></g><g transform="translate(70 96)"><rect width="180" height="42" x="-1" y="-1" fill="#FFF" stroke="#373D45" stroke-width="2" rx="2"/><text fill="#101010" font-family="NotoSansCJKkr-Medium, Noto Sans CJK KR" font-size="14" font-weight="400" letter-spacing="-.261"><tspan x="20.129" y="26">작품 심사 결과 개별 통보</tspan></text></g><g stroke="#A0A0A0" stroke-width="2"><path d="M266 115.667h20"/><path stroke-linecap="square" d="M279.5 109l6 6.667-6 6.666"/></g><g stroke="#A0A0A0" stroke-width="2"><path d="M1 115.667h51"/><path stroke-linecap="square" d="M45.5 109l6 6.667-6 6.666"/></g><g transform="translate(675 32)"><rect width="96" height="42" x="-1" y="-1" fill="#FFF" stroke="#373D45" stroke-width="2" rx="2"/><text fill="#101010" font-family="NotoSansCJKkr-Medium, Noto Sans CJK KR" font-size="14" font-weight="400" letter-spacing="-.261"><tspan x="20.318" y="26">작품 심사</tspan></text></g><g transform="translate(441 32)"><rect width="180" height="42" x="-1" y="-1" fill="#FFF" stroke="#373D45" stroke-width="2" rx="2"/><text fill="#101010" font-family="NotoSansCJKkr-Medium, Noto Sans CJK KR" font-size="14" font-weight="400" letter-spacing="-.261"><tspan x="20.129" y="26">연재 완료 및 지원금 신청</tspan></text></g><g transform="translate(207 32)"><rect width="180" height="42" x="-1" y="-1" fill="#FFF" stroke="#373D45" stroke-width="2" rx="2"/><text fill="#101010" font-family="NotoSansCJKkr-Medium, Noto Sans CJK KR" font-size="14" font-weight="400" letter-spacing="-.261"><tspan x="20.129" y="26">최소 연재 회차 이상 연재</tspan></text></g><g transform="translate(32 32)"><rect width="121" height="42" x="-1" y="-1" fill="#FFF" stroke="#373D45" stroke-width="2" rx="2"/><text fill="#101010" font-family="NotoSansCJKkr-Medium, Noto Sans CJK KR" font-size="14" font-weight="400" letter-spacing="-.261"><tspan x="20.2" y="26">프로그램 가입</tspan></text></g></g></svg>